# xmcd
#
# Track frame offsets:
#	150
#	12630
#	25588
#	39872
#	54119
#	66460
#	83002
#	93915
#	111194
#	127044
#
# Disc length: 1879 seconds
#
# Revision: 1
# Processed by: cddbd v1.4PL0 Copyright (c) Steve Scherf et al.
# Submitted via: audiograbber 1.82.02
#
DISCID=7607550a
DTITLE=The Nelons - Seasons of Songs
DYEAR=2003
DGENRE=Christian
TTITLE0=Jesus Is Your Ticket To Heaven
TTITLE1=How Do I Look Leaving This World?
TTITLE2=The Sweetest Song
TTITLE3=This Is The Only Life For Me
TTITLE4=Joybells
TTITLE5=Jesus I Heard You Had A Big House
TTITLE6=Which Way Will You Choose?
TTITLE7=Christians Never Say Goodbye
TTITLE8=Covered By The Blood
TTITLE9=It Is Well
EXTD=Volume 2
EXTT0=
EXTT1=
EXTT2=
EXTT3=
EXTT4=
EXTT5=
EXTT6=
EXTT7=
EXTT8=
EXTT9=
PLAYORDER=
